<?xml version="1.0" encoding="UTF-8" standalone="no" ?>
<!DOCTYPE svg PUBLIC "-//W3C//DTD SVG 1.1//EN" "http://www.w3.org/Graphics/SVG/1.1/DTD/svg11.dtd">
<svg xmlns="http://www.w3.org/2000/svg" xmlns:xlink="http://www.w3.org/1999/xlink" version="1.1" width="1080" height="1080" viewBox="0 0 1080 1080" xml:space="preserve">
<desc>Created with Fabric.js 5.2.4</desc>
<defs>
</defs>
<g transform="matrix(1 0 0 1 540 540)" id="d1fdcd73-1c52-41a1-b1ef-c0280074b551"  >
<rect style="stroke: none; stroke-width: 1; stroke-dasharray: none; stroke-linecap: butt; stroke-dashoffset: 0; stroke-linejoin: miter; stroke-miterlimit: 4; fill: rgb(255,255,255); fill-rule: nonzero; opacity: 1; visibility: hidden;" vector-effect="non-scaling-stroke"  x="-540" y="-540" rx="0" ry="0" width="1080" height="1080" />
</g>
<g transform="matrix(1 0 0 1 540 540)" id="a8e5a6f4-3379-460e-9f62-6708ed7eabb4"  >
</g>
<g transform="matrix(1.19 0 0 1.19 540 616.38)"  >
<g style="" vector-effect="non-scaling-stroke"   >
		<g transform="matrix(1 0 0 1 114.25 -125.69)"  >
<path style="stroke: none; stroke-width: 1; stroke-dasharray: none; stroke-linecap: butt; stroke-dashoffset: 0; stroke-linejoin: miter; stroke-miterlimit: 4; fill: rgb(0,120,251); fill-rule: nonzero; opacity: 1;" vector-effect="non-scaling-stroke"  transform=" translate(-438.45, -314.3)" d="M 433.3 309.1 C 433.5 309.20000000000005 433.6 309.3 433.7 309.40000000000003 C 433.8 309.50000000000006 433.9 309.50000000000006 433.9 309.6 C 434 309.70000000000005 434.09999999999997 309.8 434.2 309.90000000000003 C 434.3 310.00000000000006 434.4 310.00000000000006 434.5 310.1 L 434.5 310.1 C 434.6 310.20000000000005 434.7 310.3 434.8 310.40000000000003 C 434.90000000000003 310.50000000000006 435 310.6 435 310.70000000000005 C 435.1 310.80000000000007 435.2 310.90000000000003 435.2 311.00000000000006 C 435.3 311.1000000000001 435.3 311.20000000000005 435.4 311.30000000000007 C 435.5 311.4000000000001 435.5 311.50000000000006 435.59999999999997 311.70000000000005 C 435.7 311.80000000000007 435.7 311.90000000000003 435.79999999999995 312.00000000000006 C 435.9 312.1000000000001 435.9 312.30000000000007 435.9 312.40000000000003 C 435.9 312.5 436 312.6 436 312.70000000000005 C 436 312.90000000000003 436.1 313.00000000000006 436.1 313.20000000000005 C 436.1 313.30000000000007 436.1 313.40000000000003 436.20000000000005 313.50000000000006 C 436.20000000000005 313.80000000000007 436.30000000000007 314.00000000000006 436.30000000000007 314.30000000000007 L 436.30000000000007 369.9000000000001 L 530.3000000000001 369.9000000000001 L 530.3000000000001 258.7 L 346.6 258.7 L 433.3 309.1 z" stroke-linecap="round" />
</g>
		<g transform="matrix(1 0 0 1 -53 90.11)"  >
<polygon style="stroke: none; stroke-width: 1; stroke-dasharray: none; stroke-linecap: butt; stroke-dashoffset: 0; stroke-linejoin: miter; stroke-miterlimit: 4; fill: rgb(0,120,251); fill-rule: nonzero; opacity: 1;" vector-effect="non-scaling-stroke"  points="47,-27.3 -47,-82 -47,27.4 47,82 " />
</g>
		<g transform="matrix(1 0 0 1 162.1 120.96)"  >
<polygon style="stroke: none; stroke-width: 1; stroke-dasharray: none; stroke-linecap: butt; stroke-dashoffset: 0; stroke-linejoin: miter; stroke-miterlimit: 4; fill: rgb(0,120,251); fill-rule: nonzero; opacity: 1;" vector-effect="non-scaling-stroke"  points="44,-51.15 -44,-0.05 44,51.15 " />
</g>
		<g transform="matrix(1 0 0 1 53 213.41)"  >
<polygon style="stroke: none; stroke-width: 1; stroke-dasharray: none; stroke-linecap: butt; stroke-dashoffset: 0; stroke-linejoin: miter; stroke-miterlimit: 4; fill: rgb(0,120,251); fill-rule: nonzero; opacity: 1;" vector-effect="non-scaling-stroke"  points="-41.5,-30.5 -47,-27.3 -47,82 47,27.4 47,-82 " />
</g>
		<g transform="matrix(1 0 0 1 53 -33.19)"  >
<polygon style="stroke: none; stroke-width: 1; stroke-dasharray: none; stroke-linecap: butt; stroke-dashoffset: 0; stroke-linejoin: miter; stroke-miterlimit: 4; fill: rgb(0,120,251); fill-rule: nonzero; opacity: 1;" vector-effect="non-scaling-stroke"  points="47,27.4 47,-30.8 47,-82 -47,-27.4 -47,82 " />
</g>
		<g transform="matrix(1 0 0 1 -53 213.41)"  >
<polygon style="stroke: none; stroke-width: 1; stroke-dasharray: none; stroke-linecap: butt; stroke-dashoffset: 0; stroke-linejoin: miter; stroke-miterlimit: 4; fill: rgb(0,120,251); fill-rule: nonzero; opacity: 1;" vector-effect="non-scaling-stroke"  points="47,-27.3 -47,-82 -47,27.4 47,82 " />
</g>
		<g transform="matrix(1 0 0 1 -259.7 398.56)"  >
<polygon style="stroke: none; stroke-width: 1; stroke-dasharray: none; stroke-linecap: butt; stroke-dashoffset: 0; stroke-linejoin: miter; stroke-miterlimit: 4; fill: rgb(255,225,0); fill-rule: nonzero; opacity: 1;" vector-effect="non-scaling-stroke"  points="32.1,20.85 -24.5,-41.45 -53.4,-41.45 -53.4,41.45 -32.1,41.45 -32.1,-20.75 24.4,41.45 53.4,41.45 53.4,-41.45 32.1,-41.45 " />
</g>
		<g transform="matrix(1 0 0 1 -153 398.56)"  >
<polygon style="stroke: none; stroke-width: 1; stroke-dasharray: none; stroke-linecap: butt; stroke-dashoffset: 0; stroke-linejoin: miter; stroke-miterlimit: 4; fill: rgb(255,225,0); fill-rule: nonzero; opacity: 1;" vector-effect="non-scaling-stroke"  points="-43.8,41.45 -22.5,41.45 -22.5,15.55 36.7,15.55 36.7,-2.45 -22.5,-2.45 -22.5,-23.55 43.8,-23.55 43.8,-41.45 -43.8,-41.45 " />
</g>
		<g transform="matrix(1 0 0 1 -52.5 398.56)"  >
<polygon style="stroke: none; stroke-width: 1; stroke-dasharray: none; stroke-linecap: butt; stroke-dashoffset: 0; stroke-linejoin: miter; stroke-miterlimit: 4; fill: rgb(255,225,0); fill-rule: nonzero; opacity: 1;" vector-effect="non-scaling-stroke"  points="-50.9,-23.55 -10.7,-23.55 -10.7,41.45 10.6,41.45 10.6,-23.55 50.9,-23.55 50.9,-41.45 -50.9,-41.45 " />
</g>
		<g transform="matrix(1 0 0 1 95.75 398.56)"  >
<path style="stroke: none; stroke-width: 1; stroke-dasharray: none; stroke-linecap: butt; stroke-dashoffset: 0; stroke-linejoin: miter; stroke-miterlimit: 4; fill: rgb(255,255,255); fill-rule: nonzero; opacity: 1;" vector-effect="non-scaling-stroke"  transform=" translate(-419.95, -838.55)" d="M 452.9 837.4 C 450.9 836.6999999999999 448.9 836.3 447 836.1 C 448.3 835.7 450.9 835.3000000000001 453.6 833.4 C 455.5 832.1 459 829.3 460.5 823.8 C 461.3 821.0999999999999 461.3 819.0999999999999 461.3 817.9 C 461.3 812 458.7 807.8 457.40000000000003 805.9 C 452.90000000000003 799.8 446.70000000000005 797.1 439.40000000000003 797.1 L 374.40000000000003 797.1 L 374.40000000000003 880 L 439 880 C 445.4 880 451.7 879.4 457.2 875.4 C 465 869.6999999999999 465.5 860.1999999999999 465.5 857.5 C 465.5 848.8 461.2 840.5 452.9 837.4 z M 382.4 803.9 L 434.2 803.9 C 440.5 803.9 446.59999999999997 804.4 450.4 810.1999999999999 C 452.5 813.5999999999999 452.59999999999997 816.9999999999999 452.59999999999997 818.4 C 452.59999999999997 823.3 450.7 826.1 449.4 827.5 C 445 832.7 439.09999999999997 833.2 432.9 833.2 L 382.29999999999995 833.2 L 382.4 803.9 L 382.4 803.9 z M 455.1 865.5 C 451.70000000000005 871.7 445.40000000000003 873 439 873 L 382.4 873 L 382.4 840.1 L 432.29999999999995 840.1 C 439.49999999999994 840.1 449.09999999999997 840.3000000000001 453.99999999999994 847.1 C 456.99999999999994 851 457.19999999999993 855.9 457.19999999999993 857.3000000000001 C 457.3 858.9 457 862.2 455.1 865.5 z" stroke-linecap="round" />
</g>
		<g transform="matrix(1 0 0 1 192.2 398.56)"  >
<polygon style="stroke: none; stroke-width: 1; stroke-dasharray: none; stroke-linecap: butt; stroke-dashoffset: 0; stroke-linejoin: miter; stroke-miterlimit: 4; fill: rgb(255,255,255); fill-rule: nonzero; opacity: 1;" vector-effect="non-scaling-stroke"  points="-37.5,-34.55 33.4,-34.55 -44,34.85 -44,41.45 42,41.45 42,34.55 -32.6,34.55 44,-34.05 44,-41.45 -37.5,-41.45 " />
</g>
		<g transform="matrix(1 0 0 1 280.35 398.56)"  >
<polygon style="stroke: none; stroke-width: 1; stroke-dasharray: none; stroke-linecap: butt; stroke-dashoffset: 0; stroke-linejoin: miter; stroke-miterlimit: 4; fill: rgb(255,255,255); fill-rule: nonzero; opacity: 1;" vector-effect="non-scaling-stroke"  points="-26.05,-41.45 -34.25,-41.45 -34.25,41.45 34.25,41.45 34.25,34.55 -26.05,34.55 " />
</g>
		<g transform="matrix(1 0 0 1 159.1 -33.19)"  >
<path style="stroke: none; stroke-width: 1; stroke-dasharray: none; stroke-linecap: butt; stroke-dashoffset: 0; stroke-linejoin: miter; stroke-miterlimit: 4; fill: rgb(238,30,40); fill-rule: nonzero; opacity: 1;" vector-effect="non-scaling-stroke"  transform=" translate(-483.3, -406.8)" d="M 560.6 245.5 L 542.3000000000001 256.1 L 542.3000000000001 376 C 542.3000000000001 376.1 542.3000000000001 376.2 542.3000000000001 376.3 C 542.3000000000001 376.40000000000003 542.3000000000001 376.40000000000003 542.3000000000001 376.5 C 542.3000000000001 376.59999999999997 542.3000000000001 376.7 542.3000000000001 376.7 C 542.3000000000001 376.8 542.3000000000001 376.8 542.3000000000001 376.9 C 542.3000000000001 376.99999999999994 542.3000000000001 377.2 542.2 377.29999999999995 L 542.2 377.4 L 542.2 377.4 C 542.2 377.5 542.2 377.5 542.2 377.59999999999997 C 542.1 377.79999999999995 542.1 377.99999999999994 542 378.2 L 542 378.2 L 542 378.2 C 541.9 378.4 541.8 378.59999999999997 541.7 378.8 L 541.6 378.90000000000003 L 541.5 379.00000000000006 C 541.4 379.1000000000001 541.3 379.20000000000005 541.3 379.30000000000007 C 541.3 379.4000000000001 541.1999999999999 379.4000000000001 541.1999999999999 379.50000000000006 C 541.1999999999999 379.6 541.0999999999999 379.6000000000001 541.0999999999999 379.70000000000005 L 540.9999999999999 379.80000000000007 C 540.8999999999999 379.9000000000001 540.8999999999999 379.9000000000001 540.7999999999998 380.00000000000006 C 540.7999999999998 380.00000000000006 540.7999999999998 380.00000000000006 540.6999999999998 380.1000000000001 C 540.5999999999998 380.2000000000001 540.3999999999999 380.30000000000007 540.2999999999998 380.50000000000006 L 540.2999999999998 380.50000000000006 L 540.1999999999998 380.6000000000001 C 540.1999999999998 380.6000000000001 540.0999999999998 380.7000000000001 539.9999999999998 380.7000000000001 C 539.7999999999997 380.8000000000001 539.6999999999998 380.9000000000001 539.4999999999998 381.0000000000001 C 539.4999999999998 381.0000000000001 539.3999999999997 381.0000000000001 539.3999999999997 381.10000000000014 L 330.2 502.8 L 330.2 612.2 L 333.9 610 L 427.2 555.8 L 427.2 555.8 L 533.3 494.19999999999993 C 534.1999999999999 493.69999999999993 535.1999999999999 493.3999999999999 536.1999999999999 493.3999999999999 C 536.3 493.3999999999999 536.3 493.3999999999999 536.4 493.3999999999999 L 536.4 493.3999999999999 C 536.6 493.3999999999999 536.8 493.3999999999999 537.1 493.3999999999999 L 537.2 493.3999999999999 C 537.4000000000001 493.3999999999999 537.6 493.49999999999994 537.9000000000001 493.49999999999994 L 538.0000000000001 493.49999999999994 C 538.2000000000002 493.59999999999997 538.4000000000001 493.59999999999997 538.6000000000001 493.69999999999993 L 538.7000000000002 493.69999999999993 C 538.9000000000002 493.79999999999995 539.2000000000002 493.8999999999999 539.4000000000002 494.0999999999999 C 541.3000000000002 495.19999999999993 542.4000000000002 497.19999999999993 542.4000000000002 499.2999999999999 L 542.4000000000002 612.0999999999999 L 636.4000000000002 557.3999999999999 L 636.4000000000002 201.39999999999986 L 560.6 245.5 z" stroke-linecap="round" />
</g>
		<g transform="matrix(1 0 0 1 0 -248.99)"  >
<path style="stroke: none; stroke-width: 1; stroke-dasharray: none; stroke-linecap: butt; stroke-dashoffset: 0; stroke-linejoin: miter; stroke-miterlimit: 4; fill: rgb(255,225,0); fill-rule: nonzero; opacity: 1;" vector-effect="non-scaling-stroke"  transform=" translate(-324.2, -191)" d="M 212.1 303.8 L 324.2 369 L 371.2 341.7 L 418.2 314.4 L 391.8 299 L 321.20000000000005 257.9 C 319.40000000000003 256.9 318.30000000000007 254.99999999999997 318.20000000000005 253.09999999999997 C 318.20000000000005 252.79999999999995 318.20000000000005 252.39999999999998 318.20000000000005 252.09999999999997 C 318.20000000000005 251.79999999999995 318.30000000000007 251.39999999999998 318.40000000000003 251.09999999999997 C 319.1 248.49999999999997 321.50000000000006 246.59999999999997 324.20000000000005 246.59999999999997 L 534.7 246.59999999999997 L 630.4000000000001 190.99999999999997 L 324.2 13 L 230.1 67.7 L 327.2 124.1 C 329.59999999999997 125.5 330.7 128.29999999999998 330 130.9 C 329.3 133.50000000000003 326.9 135.4 324.2 135.4 L 218.1 135.4 L 113.7 135.4 L 18 191 L 212.1 303.8 z" stroke-linecap="round" />
</g>
		<g transform="matrix(1 0 0 1 0 -64)"  >
<path style="stroke: none; stroke-width: 1; stroke-dasharray: none; stroke-linecap: butt; stroke-dashoffset: 0; stroke-linejoin: miter; stroke-miterlimit: 4; fill: rgb(0,0,0); fill-rule: nonzero; opacity: 1;" vector-effect="non-scaling-stroke"  transform=" translate(-324.2, -375.99)" d="M 648.4 190.2 C 648.4 190.1 648.4 190 648.3 189.89999999999998 C 648.3 189.7 648.1999999999999 189.59999999999997 648.1999999999999 189.39999999999998 C 648.1999999999999 189.29999999999998 648.0999999999999 189.2 648.0999999999999 188.99999999999997 C 648.0999999999999 188.89999999999998 647.9999999999999 188.79999999999998 647.9999999999999 188.59999999999997 C 647.8999999999999 188.49999999999997 647.8999999999999 188.29999999999995 647.7999999999998 188.19999999999996 C 647.6999999999998 188.09999999999997 647.6999999999998 187.99999999999997 647.5999999999998 187.89999999999995 C 647.4999999999998 187.79999999999995 647.3999999999997 187.59999999999994 647.2999999999998 187.49999999999994 C 647.1999999999999 187.39999999999995 647.1999999999998 187.29999999999995 647.0999999999998 187.19999999999993 C 646.9999999999998 187.09999999999994 646.8999999999997 186.99999999999994 646.7999999999998 186.79999999999993 C 646.6999999999998 186.69999999999993 646.6999999999998 186.59999999999994 646.5999999999998 186.59999999999994 C 646.4999999999998 186.49999999999994 646.3999999999997 186.39999999999995 646.2999999999998 186.29999999999993 C 646.1999999999999 186.1999999999999 646.0999999999998 186.09999999999994 645.9999999999999 186.09999999999994 C 645.8999999999999 185.99999999999994 645.7999999999998 185.89999999999995 645.6999999999999 185.89999999999995 C 645.5999999999999 185.79999999999995 645.4999999999999 185.79999999999995 645.4 185.69999999999996 L 645.4 185.69999999999996 L 645.4 185.69999999999996 L 645.4 185.69999999999996 L 327.2 0.8 C 325.3 -0.30000000000000004 323 -0.30000000000000004 321.09999999999997 0.8 L 215.09999999999997 62.5 L 215.09999999999997 62.5 L 215.09999999999997 62.5 L 215.09999999999997 62.5 C 214.99999999999997 62.6 214.89999999999998 62.6 214.79999999999995 62.7 C 214.69999999999996 62.800000000000004 214.59999999999997 62.900000000000006 214.39999999999995 62.900000000000006 C 214.29999999999995 63.00000000000001 214.19999999999996 63.00000000000001 214.19999999999996 63.10000000000001 C 214.09999999999997 63.20000000000001 213.99999999999997 63.30000000000001 213.89999999999995 63.400000000000006 C 213.79999999999995 63.50000000000001 213.79999999999995 63.60000000000001 213.69999999999996 63.60000000000001 C 213.59999999999997 63.70000000000001 213.49999999999997 63.80000000000001 213.39999999999995 64.00000000000001 C 213.29999999999995 64.10000000000001 213.29999999999995 64.20000000000002 213.19999999999996 64.30000000000001 C 213.09999999999997 64.4 212.99999999999997 64.60000000000001 212.89999999999995 64.70000000000002 C 212.79999999999995 64.80000000000001 212.79999999999995 64.90000000000002 212.79999999999995 65.00000000000001 C 212.69999999999996 65.10000000000001 212.69999999999996 65.30000000000001 212.59999999999997 65.40000000000002 C 212.59999999999997 65.50000000000001 212.49999999999997 65.60000000000002 212.49999999999997 65.80000000000003 C 212.49999999999997 65.90000000000002 212.39999999999998 66.10000000000002 212.39999999999998 66.20000000000003 C 212.39999999999998 66.30000000000003 212.29999999999998 66.50000000000003 212.29999999999998 66.70000000000003 C 212.29999999999998 66.80000000000003 212.2 66.90000000000003 212.2 67.00000000000003 C 212.2 67.30000000000003 212.1 67.50000000000003 212.1 67.80000000000003 L 212.1 123.40000000000003 L 112.1 123.40000000000003 C 111 123.40000000000003 110 123.70000000000003 109.1 124.20000000000003 L 3.0999999999999943 185.90000000000003 L 3.0999999999999943 185.90000000000003 L 3.0999999999999943 185.90000000000003 L 3.0999999999999943 185.90000000000003 C 3 186 2.9 186 2.8 186.1 C 2.6999999999999997 186.2 2.5999999999999996 186.2 2.5 186.29999999999998 C 2.4000000000000004 186.39999999999998 2.3 186.49999999999997 2.2 186.49999999999997 C 2.1 186.59999999999997 2 186.69999999999996 1.9000000000000001 186.79999999999998 C 1.8 186.89999999999998 1.8 186.99999999999997 1.7000000000000002 186.99999999999997 C 1.6 187.09999999999997 1.5000000000000002 187.19999999999996 1.4000000000000001 187.39999999999998 C 1.3 187.49999999999997 1.3 187.59999999999997 1.2000000000000002 187.7 C 1.1 187.79999999999998 1.0000000000000002 187.89999999999998 0.9000000000000001 188.1 C 0.8000000000000002 188.2 0.8000000000000002 188.29999999999998 0.7000000000000002 188.4 C 0.6000000000000002 188.5 0.6000000000000002 188.70000000000002 0.5000000000000002 188.8 C 0.5000000000000002 188.9 0.40000000000000024 189 0.40000000000000024 189.20000000000002 C 0.40000000000000024 189.3 0.30000000000000027 189.4 0.30000000000000027 189.60000000000002 C 0.30000000000000027 189.70000000000002 0.20000000000000026 189.90000000000003 0.20000000000000026 190.10000000000002 C 0.20000000000000026 190.20000000000002 0.20000000000000026 190.3 0.10000000000000026 190.40000000000003 C 0.10000000000000026 190.70000000000005 2.498001805406602e-16 190.90000000000003 2.498001805406602e-16 191.20000000000005 L 2.498001805406602e-16 561.1 C 2.498001805406602e-16 563.2 1.1000000000000003 565.2 3.0000000000000004 566.3000000000001 L 109.1 628 L 109.1 628 L 109.1 628 C 109.3 628.1 109.39999999999999 628.2 109.6 628.3 C 109.69999999999999 628.3 109.69999999999999 628.4 109.8 628.4 C 110 628.5 110.2 628.5 110.3 628.6 C 110.39999999999999 628.6 110.39999999999999 628.7 110.5 628.7 C 110.7 628.7 110.9 628.8000000000001 111.1 628.8000000000001 C 111.19999999999999 628.8000000000001 111.19999999999999 628.8000000000001 111.3 628.8000000000001 C 111.6 628.8000000000001 111.8 628.9000000000001 112.1 628.9000000000001 C 112.39999999999999 628.9000000000001 112.6 628.9000000000001 112.89999999999999 628.8000000000001 C 112.99999999999999 628.8000000000001 112.99999999999999 628.8000000000001 113.1 628.8000000000001 C 113.3 628.8000000000001 113.5 628.7 113.69999999999999 628.7 C 113.79999999999998 628.7 113.79999999999998 628.6 113.89999999999999 628.6 C 114.1 628.5 114.3 628.5 114.39999999999999 628.4 C 114.49999999999999 628.4 114.49999999999999 628.3 114.6 628.3 C 114.8 628.1999999999999 114.89999999999999 628.0999999999999 115.1 628 L 115.1 628 L 115.1 628 L 212.1 571.6 L 212.1 684.4 C 212.1 686.5 213.2 688.5 215.1 689.6 L 321.2 751.1 L 321.2 751.1 L 321.2 751.1 C 321.4 751.2 321.5 751.3000000000001 321.7 751.4 C 321.8 751.4 321.8 751.5 321.9 751.5 C 322.09999999999997 751.6 322.29999999999995 751.6 322.4 751.7 C 322.5 751.7 322.5 751.8000000000001 322.59999999999997 751.8000000000001 C 322.79999999999995 751.8000000000001 322.99999999999994 751.9000000000001 323.2 751.9000000000001 C 323.3 751.9000000000001 323.3 751.9000000000001 323.4 751.9000000000001 C 323.7 751.9000000000001 323.9 752.0000000000001 324.2 752.0000000000001 C 324.5 752.0000000000001 324.7 752.0000000000001 325 751.9000000000001 C 325.1 751.9000000000001 325.2 751.9000000000001 325.3 751.9000000000001 C 325.5 751.9000000000001 325.6 751.8000000000001 325.8 751.8000000000001 C 325.90000000000003 751.8000000000001 326 751.7 326 751.7 C 326.2 751.6 326.3 751.6 326.5 751.5 C 326.6 751.5 326.6 751.4 326.7 751.4 C 326.9 751.3 327 751.1999999999999 327.2 751.1999999999999 L 327.2 751.1999999999999 L 327.2 751.1999999999999 L 433.29999999999995 689.4999999999999 C 435.19999999999993 688.3999999999999 436.29999999999995 686.3999999999999 436.29999999999995 684.2999999999998 L 436.29999999999995 571.4 L 533.3 627.8 L 533.3 627.8 L 533.3 627.8 C 533.5 627.9 533.5999999999999 628 533.8 628.0999999999999 C 533.9 628.0999999999999 533.9 628.1999999999999 534 628.1999999999999 C 534.2 628.3 534.4 628.3 534.5 628.4 C 534.6 628.4 534.6 628.5 534.7 628.5 C 534.9000000000001 628.5 535.1 628.6 535.3000000000001 628.6 C 535.4000000000001 628.6 535.4000000000001 628.6 535.5000000000001 628.6 C 535.8000000000001 628.6 536.0000000000001 628.7 536.3000000000001 628.7 C 536.6 628.7 536.8000000000001 628.7 537.1 628.6 C 537.2 628.6 537.3000000000001 628.6 537.4 628.6 C 537.6 628.6 537.6999999999999 628.5 537.9 628.5 C 538 628.5 538.1 628.4 538.1 628.4 C 538.3000000000001 628.3 538.4 628.3 538.6 628.1999999999999 C 538.7 628.1999999999999 538.7 628.0999999999999 538.8000000000001 628.0999999999999 C 539.0000000000001 627.9999999999999 539.1 627.8999999999999 539.3000000000001 627.8999999999999 L 539.3000000000001 627.8999999999999 L 539.3000000000001 627.8999999999999 L 645.4000000000001 566.1999999999998 C 647.3000000000001 565.0999999999998 648.4000000000001 563.0999999999998 648.4000000000001 560.9999999999998 L 648.4000000000001 191 C 648.4 190.7 648.4 190.5 648.4 190.2 z M 218.1 135.4 L 324.2 135.4 C 326.9 135.4 329.3 133.6 330 130.9 C 330.7 128.3 329.6 125.5 327.2 124.10000000000001 L 230.1 67.70000000000002 L 324.2 13 L 630.4 191 L 534.6999999999999 246.6 L 324.2 246.6 C 321.5 246.6 319.09999999999997 248.4 318.4 251.1 C 318.29999999999995 251.4 318.29999999999995 251.79999999999998 318.2 252.1 C 318.2 252.4 318.2 252.79999999999998 318.2 253.1 C 318.3 255.1 319.4 256.9 321.2 257.9 L 391.79999999999995 299 L 418.19999999999993 314.4 L 371.19999999999993 341.7 L 324.19999999999993 369 L 212.09999999999994 303.8 L 18 191 L 113.7 135.4 L 218.1 135.4 z M 224.2 448.1 L 318.2 502.70000000000005 L 318.2 612.1 L 224.2 557.4 L 224.2 448.1 L 224.2 448.1 z M 530.3 369.9 L 436.29999999999995 369.9 L 436.29999999999995 314.29999999999995 C 436.29999999999995 313.99999999999994 436.29999999999995 313.79999999999995 436.19999999999993 313.49999999999994 C 436.19999999999993 313.3999999999999 436.19999999999993 313.29999999999995 436.0999999999999 313.19999999999993 C 436.0999999999999 312.99999999999994 435.9999999999999 312.8999999999999 435.9999999999999 312.69999999999993 C 435.9999999999999 312.5999999999999 435.89999999999986 312.49999999999994 435.89999999999986 312.3999999999999 C 435.89999999999986 312.2999999999999 435.79999999999984 312.0999999999999 435.79999999999984 311.99999999999994 C 435.79999999999984 311.9 435.6999999999998 311.79999999999995 435.59999999999985 311.69999999999993 C 435.49999999999983 311.5999999999999 435.49999999999983 311.49999999999994 435.39999999999986 311.29999999999995 C 435.29999999999984 311.19999999999993 435.29999999999984 311.09999999999997 435.1999999999999 310.99999999999994 C 435.09999999999985 310.8999999999999 435.09999999999985 310.79999999999995 434.9999999999999 310.69999999999993 C 434.89999999999986 310.5999999999999 434.7999999999999 310.49999999999994 434.7999999999999 310.3999999999999 C 434.6999999999999 310.2999999999999 434.5999999999999 310.19999999999993 434.4999999999999 310.0999999999999 L 434.4999999999999 310.0999999999999 C 434.39999999999986 309.9999999999999 434.2999999999999 309.8999999999999 434.1999999999999 309.8999999999999 C 434.09999999999985 309.7999999999999 433.9999999999999 309.69999999999993 433.89999999999986 309.5999999999999 C 433.79999999999984 309.4999999999999 433.79999999999984 309.4999999999999 433.6999999999999 309.3999999999999 C 433.59999999999985 309.2999999999999 433.39999999999986 309.19999999999993 433.2999999999999 309.0999999999999 L 346.5999999999999 258.69999999999993 L 530.3 258.69999999999993 L 530.3 369.9 L 530.3 369.9 z M 424.2 324.8 L 424.2 376 L 424.2 434.2 L 330.2 488.9 L 330.2 379.4 L 424.2 324.8 z M 12 201.5 L 318.1 379.5 L 318.1 488.9 L 221.10000000000002 432.5 C 221.10000000000002 432.5 221.00000000000003 432.5 221.00000000000003 432.4 L 115.00000000000003 370.79999999999995 C 112.10000000000002 369.09999999999997 108.40000000000003 370.09999999999997 106.80000000000003 372.99999999999994 C 105.10000000000002 375.8999999999999 106.10000000000002 379.59999999999997 109.00000000000003 381.19999999999993 L 212.10000000000002 441.0999999999999 L 212.10000000000002 550.4999999999999 L 115.10000000000002 494.0999999999999 C 113.20000000000002 492.9999999999999 110.90000000000002 492.9999999999999 109.10000000000002 494.0999999999999 C 107.20000000000002 495.19999999999993 106.10000000000002 497.19999999999993 106.10000000000002 499.2999999999999 L 106.10000000000002 612.0999999999999 L 12.100000000000023 557.3999999999999 L 12.100000000000023 201.5 L 12 201.5 z M 224.2 571.4 L 318.2 626.1 L 318.2 735.5 L 224.2 680.8 L 224.2 571.4 L 224.2 571.4 z M 330.2 735.4 L 330.2 626.1 L 335.7 622.9 L 424.2 571.4 L 424.2 680.8 L 330.2 735.4 z M 530.3 509.8 L 530.3 612.1 L 442.29999999999995 560.9 L 530.3 509.8 z M 636.4 557.5 L 542.4 612.2 L 542.4 499.3 C 542.4 497.1 541.1999999999999 495.1 539.4 494.1 C 539.1999999999999 494 538.9 493.8 538.6999999999999 493.70000000000005 L 538.5999999999999 493.70000000000005 C 538.3999999999999 493.6 538.1999999999999 493.50000000000006 537.9999999999999 493.50000000000006 L 537.8999999999999 493.50000000000006 C 537.6999999999998 493.40000000000003 537.4999999999999 493.40000000000003 537.1999999999998 493.40000000000003 L 537.0999999999998 493.40000000000003 C 536.8999999999997 493.40000000000003 536.6999999999998 493.40000000000003 536.3999999999997 493.40000000000003 L 536.3999999999997 493.40000000000003 C 536.2999999999997 493.40000000000003 536.2999999999997 493.40000000000003 536.1999999999997 493.40000000000003 C 535.1999999999997 493.40000000000003 534.1999999999997 493.70000000000005 533.2999999999997 494.20000000000005 L 427.1999999999997 555.7 L 427.1999999999997 555.7 L 334 610 L 330.3 612.2 L 330.3 502.8 L 539.4 381.20000000000005 C 539.4 381.20000000000005 539.5 381.20000000000005 539.5 381.1 C 539.7 381 539.8 380.90000000000003 540 380.8 C 540.1 380.8 540.1 380.7 540.2 380.7 L 540.3000000000001 380.59999999999997 L 540.3000000000001 380.59999999999997 C 540.4000000000001 380.49999999999994 540.6 380.4 540.7 380.2 C 540.7 380.2 540.7 380.2 540.8000000000001 380.09999999999997 C 540.9000000000001 379.99999999999994 540.9000000000001 379.99999999999994 541.0000000000001 379.9 L 541.1000000000001 379.79999999999995 C 541.2000000000002 379.69999999999993 541.2000000000002 379.69999999999993 541.2000000000002 379.59999999999997 C 541.2000000000002 379.5 541.3000000000002 379.49999999999994 541.3000000000002 379.4 C 541.4000000000002 379.29999999999995 541.5000000000002 379.2 541.5000000000002 379.09999999999997 L 541.6000000000003 378.99999999999994 L 541.7000000000003 378.8999999999999 C 541.8000000000003 378.69999999999993 541.9000000000003 378.49999999999994 542.0000000000002 378.2999999999999 L 542.0000000000002 378.2999999999999 L 542.0000000000002 378.2999999999999 C 542.1000000000003 378.0999999999999 542.2000000000003 377.8999999999999 542.2000000000003 377.6999999999999 C 542.2000000000003 377.59999999999985 542.2000000000003 377.59999999999985 542.2000000000003 377.4999999999999 L 542.2000000000003 377.4999999999999 L 542.2000000000003 377.39999999999986 C 542.2000000000003 377.29999999999984 542.3000000000003 377.09999999999985 542.3000000000003 376.9999999999999 C 542.3000000000003 376.8999999999999 542.3000000000003 376.89999999999986 542.3000000000003 376.7999999999999 C 542.3000000000003 376.69999999999993 542.3000000000003 376.5999999999999 542.3000000000003 376.5999999999999 C 542.3000000000003 376.4999999999999 542.3000000000003 376.4999999999999 542.3000000000003 376.3999999999999 C 542.3000000000003 376.29999999999995 542.3000000000003 376.19999999999993 542.3000000000003 376.0999999999999 L 542.3000000000003 256.0999999999999 L 560.6000000000003 245.49999999999991 L 636.3000000000003 201.49999999999991 L 636.3000000000003 557.4999999999999 L 636.4 557.5 L 636.4 557.5 z" stroke-linecap="round" />
</g>
		<g transform="matrix(1 0 0 1 -159.25 -33.24)"  >
<path style="stroke: none; stroke-width: 1; stroke-dasharray: none; stroke-linecap: butt; stroke-dashoffset: 0; stroke-linejoin: miter; stroke-miterlimit: 4; fill: rgb(255,255,255); fill-rule: nonzero; opacity: 1;" vector-effect="non-scaling-stroke"  transform=" translate(-164.95, -406.75)" d="M 106 499.3 C 106 497.1 107.2 495.1 109 494.1 C 110.9 493 113.2 493 115 494.1 L 212 550.5 L 212 441.1 L 108.9 381.20000000000005 C 106 379.50000000000006 105 375.80000000000007 106.7 373.00000000000006 C 108.4 370.1000000000001 112.10000000000001 369.1000000000001 114.9 370.80000000000007 L 220.9 432.4000000000001 C 220.9 432.4000000000001 221 432.4000000000001 221 432.5000000000001 L 318 488.9000000000001 L 318 379.4 L 11.899999999999977 201.39999999999998 L 11.899999999999977 557.4 L 105.89999999999998 612.1 L 105.89999999999998 499.3 L 106 499.3 z" stroke-linecap="round" />
</g>
</g>
</g>
</svg>