<?xml version="1.0" encoding="UTF-8"?> <!-- Generator: Adobe Illustrator 25.4.1, SVG Export Plug-In . SVG Version: 6.00 Build 0) --> <svg xmlns="http://www.w3.org/2000/svg" xmlns:xlink="http://www.w3.org/1999/xlink" version="1.1" id="Layer_1" x="0px" y="0px" viewBox="0 0 648.4 880" style="enable-background:new 0 0 648.4 880;" xml:space="preserve"> <style type="text/css"> .st0{fill:#0078FB;} .st1{fill:#FFE100;} .st2{fill:#FFFFFF;} .st3{fill:#EE1E28;} </style> <g> <path class="st0" d="M433.3,309.1c0.2,0.1,0.3,0.2,0.4,0.3c0.1,0.1,0.2,0.1,0.2,0.2c0.1,0.1,0.2,0.2,0.3,0.3 c0.1,0.1,0.2,0.1,0.3,0.2l0,0c0.1,0.1,0.2,0.2,0.3,0.3c0.1,0.1,0.2,0.2,0.2,0.3c0.1,0.1,0.2,0.2,0.2,0.3c0.1,0.1,0.1,0.2,0.2,0.3 c0.1,0.1,0.1,0.2,0.2,0.4c0.1,0.1,0.1,0.2,0.2,0.3c0.1,0.1,0.1,0.3,0.1,0.4s0.1,0.2,0.1,0.3c0,0.2,0.1,0.3,0.1,0.5 c0,0.1,0,0.2,0.1,0.3c0,0.3,0.1,0.5,0.1,0.8v55.6h94V258.7H346.6L433.3,309.1z"></path> <polygon class="st0" points="318.2,502.8 224.2,448.1 224.2,557.5 318.2,612.1 "></polygon> <polygon class="st0" points="530.3,509.8 442.3,560.9 530.3,612.1 "></polygon> <polygon class="st0" points="335.7,622.9 330.2,626.1 330.2,735.4 424.2,680.8 424.2,571.4 "></polygon> <polygon class="st0" points="424.2,434.2 424.2,376 424.2,324.8 330.2,379.4 330.2,488.8 "></polygon> <polygon class="st0" points="318.2,626.1 224.2,571.4 224.2,680.8 318.2,735.4 "></polygon> <g> <polygon class="st1" points="96.6,859.4 40,797.1 11.1,797.1 11.1,880 32.4,880 32.4,817.8 88.9,880 117.9,880 117.9,797.1 96.6,797.1 "></polygon> <polygon class="st1" points="127.4,880 148.7,880 148.7,854.1 207.9,854.1 207.9,836.1 148.7,836.1 148.7,815 215,815 215,797.1 127.4,797.1 "></polygon> <polygon class="st1" points="220.8,815 261,815 261,880 282.3,880 282.3,815 322.6,815 322.6,797.1 220.8,797.1 "></polygon> </g> <g> <path class="st2" d="M452.9,837.4c-2-0.7-4-1.1-5.9-1.3c1.3-0.4,3.9-0.8,6.6-2.7c1.9-1.3,5.4-4.1,6.9-9.6c0.8-2.7,0.8-4.7,0.8-5.9 c0-5.9-2.6-10.1-3.9-12c-4.5-6.1-10.7-8.8-18-8.8h-65V880H439c6.4,0,12.7-0.6,18.2-4.6c7.8-5.7,8.3-15.2,8.3-17.9 C465.5,848.8,461.2,840.5,452.9,837.4z M382.4,803.9h51.8c6.3,0,12.4,0.5,16.2,6.3c2.1,3.4,2.2,6.8,2.2,8.2c0,4.9-1.9,7.7-3.2,9.1 c-4.4,5.2-10.3,5.7-16.5,5.7h-50.6L382.4,803.9L382.4,803.9z M455.1,865.5c-3.4,6.2-9.7,7.5-16.1,7.5h-56.6v-32.9h49.9 c7.2,0,16.8,0.2,21.7,7c3,3.9,3.2,8.8,3.2,10.2C457.3,858.9,457,862.2,455.1,865.5z"></path> <polygon class="st2" points="478.9,804 549.8,804 472.4,873.4 472.4,880 558.4,880 558.4,873.1 483.8,873.1 560.4,804.5 560.4,797.1 478.9,797.1 "></polygon> <polygon class="st2" points="578.5,797.1 570.3,797.1 570.3,880 638.8,880 638.8,873.1 578.5,873.1 "></polygon> </g> <path class="st3" d="M560.6,245.5l-18.3,10.6V376c0,0.1,0,0.2,0,0.3c0,0.1,0,0.1,0,0.2s0,0.2,0,0.2c0,0.1,0,0.1,0,0.2 s0,0.3-0.1,0.4v0.1l0,0c0,0.1,0,0.1,0,0.2c-0.1,0.2-0.1,0.4-0.2,0.6l0,0l0,0c-0.1,0.2-0.2,0.4-0.3,0.6l-0.1,0.1l-0.1,0.1 c-0.1,0.1-0.2,0.2-0.2,0.3c0,0.1-0.1,0.1-0.1,0.2s-0.1,0.1-0.1,0.2l-0.1,0.1c-0.1,0.1-0.1,0.1-0.2,0.2c0,0,0,0-0.1,0.1 s-0.3,0.2-0.4,0.4l0,0l-0.1,0.1c0,0-0.1,0.1-0.2,0.1c-0.2,0.1-0.3,0.2-0.5,0.3c0,0-0.1,0-0.1,0.1L330.2,502.8v109.4l3.7-2.2 l93.3-54.2l0,0l106.1-61.6c0.9-0.5,1.9-0.8,2.9-0.8c0.1,0,0.1,0,0.2,0l0,0c0.2,0,0.4,0,0.7,0h0.1c0.2,0,0.4,0.1,0.7,0.1h0.1 c0.2,0.1,0.4,0.1,0.6,0.2h0.1c0.2,0.1,0.5,0.2,0.7,0.4c1.9,1.1,3,3.1,3,5.2v112.8l94-54.7v-356L560.6,245.5z"></path> <path class="st1" d="M212.1,303.8L324.2,369l47-27.3l47-27.3L391.8,299l-70.6-41.1c-1.8-1-2.9-2.9-3-4.8c0-0.3,0-0.7,0-1 s0.1-0.7,0.2-1c0.7-2.6,3.1-4.5,5.8-4.5h210.5l95.7-55.6L324.2,13l-94.1,54.7l97.1,56.4c2.4,1.4,3.5,4.2,2.8,6.8s-3.1,4.5-5.8,4.5 H218.1H113.7L18,191L212.1,303.8z"></path> <path d="M648.4,190.2c0-0.1,0-0.2-0.1-0.3c0-0.2-0.1-0.3-0.1-0.5c0-0.1-0.1-0.2-0.1-0.4c0-0.1-0.1-0.2-0.1-0.4 c-0.1-0.1-0.1-0.3-0.2-0.4s-0.1-0.2-0.2-0.3c-0.1-0.1-0.2-0.3-0.3-0.4s-0.1-0.2-0.2-0.3c-0.1-0.1-0.2-0.2-0.3-0.4 c-0.1-0.1-0.1-0.2-0.2-0.2c-0.1-0.1-0.2-0.2-0.3-0.3s-0.2-0.2-0.3-0.2c-0.1-0.1-0.2-0.2-0.3-0.2c-0.1-0.1-0.2-0.1-0.3-0.2l0,0l0,0 l0,0L327.2,0.8c-1.9-1.1-4.2-1.1-6.1,0l-106,61.7l0,0l0,0l0,0c-0.1,0.1-0.2,0.1-0.3,0.2c-0.1,0.1-0.2,0.2-0.4,0.2 c-0.1,0.1-0.2,0.1-0.2,0.2c-0.1,0.1-0.2,0.2-0.3,0.3c-0.1,0.1-0.1,0.2-0.2,0.2c-0.1,0.1-0.2,0.2-0.3,0.4c-0.1,0.1-0.1,0.2-0.2,0.3 s-0.2,0.3-0.3,0.4c-0.1,0.1-0.1,0.2-0.1,0.3c-0.1,0.1-0.1,0.3-0.2,0.4c0,0.1-0.1,0.2-0.1,0.4c0,0.1-0.1,0.3-0.1,0.4 c0,0.1-0.1,0.3-0.1,0.5c0,0.1-0.1,0.2-0.1,0.3c0,0.3-0.1,0.5-0.1,0.8v55.6h-100c-1.1,0-2.1,0.3-3,0.8l-106,61.7l0,0l0,0l0,0 C3,186,2.9,186,2.8,186.1s-0.2,0.1-0.3,0.2s-0.2,0.2-0.3,0.2c-0.1,0.1-0.2,0.2-0.3,0.3c-0.1,0.1-0.1,0.2-0.2,0.2 c-0.1,0.1-0.2,0.2-0.3,0.4c-0.1,0.1-0.1,0.2-0.2,0.3c-0.1,0.1-0.2,0.2-0.3,0.4c-0.1,0.1-0.1,0.2-0.2,0.3c-0.1,0.1-0.1,0.3-0.2,0.4 c0,0.1-0.1,0.2-0.1,0.4c0,0.1-0.1,0.2-0.1,0.4c0,0.1-0.1,0.3-0.1,0.5c0,0.1,0,0.2-0.1,0.3c0,0.3-0.1,0.5-0.1,0.8v369.9 c0,2.1,1.1,4.1,3,5.2L109.1,628l0,0l0,0c0.2,0.1,0.3,0.2,0.5,0.3c0.1,0,0.1,0.1,0.2,0.1c0.2,0.1,0.4,0.1,0.5,0.2 c0.1,0,0.1,0.1,0.2,0.1c0.2,0,0.4,0.1,0.6,0.1c0.1,0,0.1,0,0.2,0c0.3,0,0.5,0.1,0.8,0.1s0.5,0,0.8-0.1c0.1,0,0.1,0,0.2,0 c0.2,0,0.4-0.1,0.6-0.1c0.1,0,0.1-0.1,0.2-0.1c0.2-0.1,0.4-0.1,0.5-0.2c0.1,0,0.1-0.1,0.2-0.1c0.2-0.1,0.3-0.2,0.5-0.3l0,0l0,0 l97-56.4v112.8c0,2.1,1.1,4.1,3,5.2l106.1,61.5l0,0l0,0c0.2,0.1,0.3,0.2,0.5,0.3c0.1,0,0.1,0.1,0.2,0.1c0.2,0.1,0.4,0.1,0.5,0.2 c0.1,0,0.1,0.1,0.2,0.1c0.2,0,0.4,0.1,0.6,0.1c0.1,0,0.1,0,0.2,0c0.3,0,0.5,0.1,0.8,0.1s0.5,0,0.8-0.1c0.1,0,0.2,0,0.3,0 c0.2,0,0.3-0.1,0.5-0.1c0.1,0,0.2-0.1,0.2-0.1c0.2-0.1,0.3-0.1,0.5-0.2c0.1,0,0.1-0.1,0.2-0.1c0.2-0.1,0.3-0.2,0.5-0.2l0,0l0,0 l106.1-61.7c1.9-1.1,3-3.1,3-5.2V571.4l97,56.4l0,0l0,0c0.2,0.1,0.3,0.2,0.5,0.3c0.1,0,0.1,0.1,0.2,0.1c0.2,0.1,0.4,0.1,0.5,0.2 c0.1,0,0.1,0.1,0.2,0.1c0.2,0,0.4,0.1,0.6,0.1c0.1,0,0.1,0,0.2,0c0.3,0,0.5,0.1,0.8,0.1c0.3,0,0.5,0,0.8-0.1c0.1,0,0.2,0,0.3,0 c0.2,0,0.3-0.1,0.5-0.1c0.1,0,0.2-0.1,0.2-0.1c0.2-0.1,0.3-0.1,0.5-0.2c0.1,0,0.1-0.1,0.2-0.1c0.2-0.1,0.3-0.2,0.5-0.2l0,0l0,0 l106.1-61.7c1.9-1.1,3-3.1,3-5.2V191C648.4,190.7,648.4,190.5,648.4,190.2z M218.1,135.4h106.1c2.7,0,5.1-1.8,5.8-4.5 c0.7-2.6-0.4-5.4-2.8-6.8l-97.1-56.4L324.2,13l306.2,178l-95.7,55.6H324.2c-2.7,0-5.1,1.8-5.8,4.5c-0.1,0.3-0.1,0.7-0.2,1 c0,0.3,0,0.7,0,1c0.1,2,1.2,3.8,3,4.8l70.6,41.1l26.4,15.4l-47,27.3l-47,27.3l-112.1-65.2L18,191l95.7-55.6H218.1z M224.2,448.1 l94,54.6v109.4l-94-54.7V448.1L224.2,448.1z M530.3,369.9h-94v-55.6c0-0.3,0-0.5-0.1-0.8c0-0.1,0-0.2-0.1-0.3 c0-0.2-0.1-0.3-0.1-0.5c0-0.1-0.1-0.2-0.1-0.3c0-0.1-0.1-0.3-0.1-0.4s-0.1-0.2-0.2-0.3c-0.1-0.1-0.1-0.2-0.2-0.4 c-0.1-0.1-0.1-0.2-0.2-0.3c-0.1-0.1-0.1-0.2-0.2-0.3c-0.1-0.1-0.2-0.2-0.2-0.3c-0.1-0.1-0.2-0.2-0.3-0.3l0,0 c-0.1-0.1-0.2-0.2-0.3-0.2c-0.1-0.1-0.2-0.2-0.3-0.3c-0.1-0.1-0.1-0.1-0.2-0.2c-0.1-0.1-0.3-0.2-0.4-0.3l-86.7-50.4h183.7V369.9 L530.3,369.9z M424.2,324.8V376v58.2l-94,54.7V379.4L424.2,324.8z M12,201.5l306.1,178v109.4l-97-56.4c0,0-0.1,0-0.1-0.1l-106-61.6 c-2.9-1.7-6.6-0.7-8.2,2.2c-1.7,2.9-0.7,6.6,2.2,8.2l103.1,59.9v109.4l-97-56.4c-1.9-1.1-4.2-1.1-6,0c-1.9,1.1-3,3.1-3,5.2v112.8 l-94-54.7V201.5H12z M224.2,571.4l94,54.7v109.4l-94-54.7V571.4L224.2,571.4z M330.2,735.4V626.1l5.5-3.2l88.5-51.5v109.4 L330.2,735.4z M530.3,509.8v102.3l-88-51.2L530.3,509.8z M636.4,557.5l-94,54.7V499.3c0-2.2-1.2-4.2-3-5.2 c-0.2-0.1-0.5-0.3-0.7-0.4h-0.1c-0.2-0.1-0.4-0.2-0.6-0.2h-0.1c-0.2-0.1-0.4-0.1-0.7-0.1h-0.1c-0.2,0-0.4,0-0.7,0l0,0 c-0.1,0-0.1,0-0.2,0c-1,0-2,0.3-2.9,0.8l-106.1,61.5l0,0L334,610l-3.7,2.2V502.8l209.1-121.6c0,0,0.1,0,0.1-0.1 c0.2-0.1,0.3-0.2,0.5-0.3c0.1,0,0.1-0.1,0.2-0.1l0.1-0.1l0,0c0.1-0.1,0.3-0.2,0.4-0.4c0,0,0,0,0.1-0.1s0.1-0.1,0.2-0.2l0.1-0.1 c0.1-0.1,0.1-0.1,0.1-0.2s0.1-0.1,0.1-0.2c0.1-0.1,0.2-0.2,0.2-0.3l0.1-0.1l0.1-0.1c0.1-0.2,0.2-0.4,0.3-0.6l0,0l0,0 c0.1-0.2,0.2-0.4,0.2-0.6c0-0.1,0-0.1,0-0.2l0,0v-0.1c0-0.1,0.1-0.3,0.1-0.4s0-0.1,0-0.2s0-0.2,0-0.2c0-0.1,0-0.1,0-0.2 s0-0.2,0-0.3v-120l18.3-10.6l75.7-44v356L636.4,557.5L636.4,557.5z"></path> <path class="st2" d="M106,499.3c0-2.2,1.2-4.2,3-5.2c1.9-1.1,4.2-1.1,6,0l97,56.4V441.1l-103.1-59.9c-2.9-1.7-3.9-5.4-2.2-8.2 c1.7-2.9,5.4-3.9,8.2-2.2l106,61.6c0,0,0.1,0,0.1,0.1l97,56.4V379.4l-306.1-178v356l94,54.7V499.3H106z"></path> </g> </svg> 